<?xml version="1.0" standalone="no"?>
<!DOCTYPE svg PUBLIC "-//W3C//DTD SVG 20010904//EN"
 "http://www.w3.org/TR/2001/REC-SVG-20010904/DTD/svg10.dtd">
<svg version="1.0" xmlns="http://www.w3.org/2000/svg"
 width="700.000000pt" height="700.000000pt" viewBox="0 0 700.000000 700.000000"
 preserveAspectRatio="xMidYMid meet">
<metadata>
Created by potrace 1.14, written by Peter Selinger 2001-2017
</metadata>
<g transform="translate(0.000000,700.000000) scale(0.100000,-0.100000)"
fill="#000000" stroke="none">
<path d="M0 3500 l0 -3500 3500 0 3500 0 0 3500 0 3500 -3500 0 -3500 0 0
-3500z m3850 2685 c1136 -141 2076 -969 2360 -2081 190 -739 72 -1515 -327
-2163 -222 -360 -582 -717 -935 -928 -285 -170 -595 -291 -903 -352 -361 -72
-811 -66 -1160 14 -294 68 -602 194 -855 351 -294 181 -600 467 -802 749 -543
756 -675 1721 -356 2595 238 652 732 1209 1355 1527 297 152 585 242 914 287
147 20 550 20 709 1z"/>
<path d="M3250 6024 c-347 -41 -621 -120 -905 -259 -794 -389 -1331 -1139
-1451 -2025 -21 -152 -23 -489 -5 -635 61 -484 231 -904 525 -1295 89 -119
301 -338 420 -434 374 -304 825 -501 1311 -573 167 -24 543 -24 710 0 473 70
921 261 1280 547 114 91 293 268 390 385 595 721 763 1705 440 2581 -92 251
-272 561 -443 764 -94 112 -288 303 -387 381 -360 284 -755 459 -1220 540 -96
17 -171 22 -375 24 -140 2 -271 1 -290 -1z m548 -908 c60 -9 134 -23 165 -31
230 -60 395 -178 464 -333 33 -76 44 -135 44 -238 0 -177 -55 -308 -186 -440
-67 -68 -96 -89 -176 -128 -94 -46 -299 -106 -360 -106 -61 0 -25 -16 74 -32
180 -29 298 -80 388 -168 91 -90 118 -156 190 -475 34 -149 70 -293 81 -322
26 -71 66 -103 127 -103 47 0 73 12 122 57 l25 23 22 -23 22 -24 -58 -55
c-115 -110 -253 -154 -447 -145 -227 10 -350 87 -413 259 -12 32 -44 180 -71
330 -68 372 -105 497 -172 573 -57 65 -92 75 -266 75 l-153 0 0 -437 c0 -241
5 -469 10 -507 18 -119 51 -150 187 -169 73 -10 73 -10 73 -41 l0 -31 -550 0
-550 0 0 33 c0 26 4 32 23 32 60 1 162 31 188 56 54 52 54 43 54 1139 0 1067
0 1060 -46 1119 -21 27 -83 49 -171 61 -46 6 -48 8 -48 38 l0 32 650 -2 c535
-1 669 -4 758 -17z m-428 -2922 l0 -157 22 28 c43 55 144 72 205 35 45 -27 53
-67 53 -257 0 -133 3 -164 16 -177 8 -9 22 -16 30 -16 8 0 14 -4 14 -8 0 -4
-54 -8 -120 -8 -66 1 -120 2 -120 3 0 1 11 13 25 27 25 25 25 27 25 193 0 175
-8 214 -44 221 -34 7 -67 -9 -86 -41 -18 -28 -20 -51 -20 -194 0 -134 3 -164
16 -177 8 -9 20 -16 25 -16 5 0 9 -3 9 -8 0 -4 -54 -7 -120 -8 -66 0 -120 4
-120 8 0 4 5 8 10 8 6 0 19 9 30 20 19 19 20 33 20 304 0 168 -4 296 -10 311
-6 15 -19 29 -30 32 -43 11 -16 22 63 26 45 1 88 4 95 5 9 2 12 -35 12 -154z
m-750 126 c57 -57 -11 -138 -94 -110 -54 17 -66 68 -28 113 22 25 96 23 122
-3z m1302 3 c25 -22 23 -75 -3 -99 -27 -25 -91 -25 -118 0 -25 23 -28 72 -4
98 21 24 99 25 125 1z m-1694 -58 c90 -27 134 -94 118 -181 -10 -52 -71 -108
-135 -125 l-52 -13 46 -12 c74 -18 101 -52 125 -158 23 -98 40 -122 72 -105
30 16 36 0 8 -21 -31 -24 -80 -34 -128 -27 -53 9 -88 51 -97 118 -11 82 -34
161 -52 181 -11 12 -31 18 -60 18 l-44 0 3 -137 3 -136 35 -13 c19 -7 33 -13
30 -14 -3 -1 -69 -3 -147 -4 -137 -2 -174 4 -116 19 15 3 31 12 35 18 4 7 8
136 8 288 0 285 -2 299 -41 299 -10 0 -21 5 -24 10 -11 17 352 13 413 -5z
m2872 -85 l0 -70 55 0 c30 0 55 -4 55 -10 0 -5 -25 -10 -55 -10 l-55 0 0 -184
c0 -102 4 -196 10 -210 13 -35 52 -35 79 1 28 34 38 23 15 -16 -51 -87 -198
-76 -223 16 -6 21 -11 118 -11 216 l0 177 -41 0 c-24 0 -38 4 -34 10 3 6 22
10 41 10 l34 0 0 60 0 60 33 1 c17 0 41 4 52 9 41 18 45 13 45 -60z m-2450
-520 c8 -5 21 -10 28 -10 6 0 12 -4 12 -8 0 -4 -56 -8 -125 -8 -69 0 -125 4
-125 8 0 4 5 8 10 8 6 0 19 9 30 20 18 18 20 33 20 189 0 179 -6 215 -39 226
-44 14 -18 23 66 24 47 1 89 4 92 7 3 3 8 -96 11 -221 4 -186 8 -227 20 -235z
m392 450 c82 -23 115 -119 56 -163 -72 -54 -147 45 -82 110 27 27 20 43 -18
43 -68 0 -110 -70 -116 -191 -5 -103 7 -148 51 -185 27 -22 38 -25 80 -21 37
3 56 12 83 38 36 34 44 27 20 -19 -62 -118 -213 -137 -314 -39 -78 75 -83 257
-11 359 45 62 159 93 251 68z m912 -446 c11 -8 23 -14 28 -14 4 0 8 -4 8 -8 0
-4 -56 -8 -125 -8 -69 0 -125 4 -125 8 0 4 6 8 14 8 8 0 22 7 30 16 13 13 16
46 16 200 0 171 -1 185 -20 204 -11 11 -24 20 -30 20 -5 0 -10 4 -10 9 0 4 39
9 87 10 47 0 89 3 92 7 3 3 8 -94 11 -216 5 -205 6 -223 24 -236z m413 429
c38 -28 62 -71 69 -126 l7 -47 -132 0 -131 0 0 -42 c0 -64 18 -118 50 -150 23
-23 37 -28 74 -28 39 0 52 6 85 35 49 45 59 32 22 -27 -87 -137 -298 -107
-352 49 -8 21 -14 72 -14 114 1 65 5 85 30 135 25 49 39 63 85 87 47 25 64 28
117 25 43 -3 71 -10 90 -25z m390 11 c43 -15 48 -15 58 0 21 28 25 18 25 -64
0 -87 -13 -104 -30 -40 -15 55 -48 89 -93 97 -46 7 -77 -16 -77 -59 0 -33 22
-58 118 -131 72 -55 102 -98 102 -147 0 -109 -140 -174 -260 -119 -40 18 -46
18 -56 5 -20 -28 -37 -19 -30 15 3 17 6 58 6 90 0 65 14 79 23 25 17 -106 92
-164 155 -120 16 11 22 25 22 52 0 43 -17 65 -108 142 -72 60 -92 93 -92 147
0 49 22 80 74 104 51 23 101 24 163 3z"/>
<path d="M3353 5061 c-78 -20 -107 -61 -123 -168 -5 -37 -10 -278 -10 -535 l0
-468 133 0 c257 0 381 59 457 214 48 100 62 167 67 336 11 345 -71 534 -262
601 -65 23 -209 34 -262 20z"/>
<path d="M2036 2244 c-3 -9 -6 -76 -6 -150 l0 -134 34 0 c51 0 95 19 110 49
36 69 31 172 -11 221 -21 26 -32 30 -73 30 -34 0 -50 -4 -54 -16z"/>
<path d="M4228 2083 c-25 -29 -36 -55 -43 -105 l-7 -48 72 0 72 0 -4 64 c-6
92 -50 135 -90 89z"/>
</g>
</svg>
